<svg width="351.000000" height="197.000000" viewBox="0 0 351 197" fill="none" xmlns="http://www.w3.org/2000/svg" xmlns:xlink="http://www.w3.org/1999/xlink">
	<desc>
			Created with Pixso.
	</desc>
	<defs>
		<clipPath id="clip13_294">
			<rect id="social-icon/twitter" width="21.343065" height="20.000000" transform="translate(114.657227 177.000000)" fill="white" fill-opacity="0"/>
		</clipPath>
		<clipPath id="clip13_296">
			<rect id="social-icon/facebook" width="21.343065" height="20.000000" transform="translate(0.000000 177.000000)" fill="white" fill-opacity="0"/>
		</clipPath>
		<clipPath id="clip13_300">
			<rect id="social-icon/instagram" width="21.343065" height="20.000000" transform="translate(76.437988 177.000000)" fill="white" fill-opacity="0"/>
		</clipPath>
		<clipPath id="clip13_304">
			<rect id="social-icon/youtube" width="21.343065" height="20.000000" transform="translate(38.219238 177.000000)" fill="white" fill-opacity="0"/>
		</clipPath>
		<clipPath id="clip13_316">
			<rect id="Logo" width="120.000000" height="24.303797" fill="white" fill-opacity="0"/>
		</clipPath>
	</defs>
	<rect id="social-icon/twitter" width="21.343065" height="20.000000" transform="translate(114.657227 177.000000)" fill="#FFFFFF" fill-opacity="0"/>
	<g clip-path="url(#clip13_294)">
		<path id="Vector" d="M135.11 179.5C134.25 180.06 133.31 180.49 132.31 180.77C131.78 180.19 131.07 179.78 130.27 179.6C129.48 179.41 128.65 179.46 127.89 179.73C127.12 180.01 126.47 180.49 126.01 181.12C125.55 181.76 125.31 182.51 125.32 183.27L125.32 184.1C123.76 184.14 122.21 183.82 120.82 183.16C119.42 182.5 118.22 181.53 117.32 180.33C117.32 180.33 113.76 187.83 121.77 191.16C119.94 192.33 117.75 192.91 115.54 192.83C123.55 197 133.33 192.83 133.33 183.25C133.33 183.01 133.3 182.78 133.26 182.55C134.16 181.71 134.8 180.66 135.11 179.5Z" fill="#FFFFFF" fill-opacity="1.000000" fill-rule="nonzero"/>
	</g>
	<rect id="social-icon/facebook" width="21.343065" height="20.000000" transform="translate(0.000000 177.000000)" fill="#FFFFFF" fill-opacity="0"/>
	<g clip-path="url(#clip13_296)">
		<path id="Vector" d="M16 178.66L13.33 178.66C12.16 178.66 11.02 179.1 10.19 179.88C9.36 180.66 8.89 181.72 8.89 182.83L8.89 185.33L6.22 185.33L6.22 188.66L8.89 188.66L8.89 195.33L12.45 195.33L12.45 188.66L15.11 188.66L16 185.33L12.45 185.33L12.45 182.83C12.45 182.61 12.54 182.4 12.71 182.24C12.87 182.08 13.1 182 13.33 182L16 182L16 178.66Z" fill="#FFFFFF" fill-opacity="1.000000" fill-rule="nonzero"/>
	</g>
	<rect id="social-icon/instagram" width="21.343065" height="20.000000" transform="translate(76.437988 177.000000)" fill="#FFFFFF" fill-opacity="0"/>
	<g clip-path="url(#clip13_300)">
		<path id="Vector" d="M91.55 178.66C94.01 178.66 96 180.53 96 182.83L96 191.16C96 193.46 94.01 195.33 91.55 195.33L82.66 195.33C80.2 195.33 78.21 193.46 78.21 191.16L78.21 182.83C78.21 180.53 80.2 178.66 82.66 178.66L91.55 178.66Z" stroke="#FFFFFF" stroke-opacity="1.000000" stroke-width="2.000000" stroke-linejoin="round"/>
		<path id="Vector" d="M90.3 188.49C89.96 189.12 89.41 189.62 88.74 189.94C88.07 190.25 87.32 190.36 86.58 190.25C85.84 190.14 85.16 189.81 84.63 189.32C84.1 188.82 83.75 188.18 83.63 187.49C83.51 186.8 83.63 186.09 83.97 185.46C84.3 184.83 84.84 184.32 85.5 184C86.17 183.68 86.92 183.56 87.66 183.66C88.42 183.77 89.12 184.1 89.66 184.6C90.2 185.11 90.55 185.76 90.66 186.47C90.77 187.16 90.64 187.87 90.3 188.49Z" stroke="#FFFFFF" stroke-opacity="1.000000" stroke-width="2.000000" stroke-linejoin="round"/>
		<path id="Vector" d="M92 182.41L92.01 " stroke="#FFFFFF" stroke-opacity="1.000000" stroke-width="2.000000" stroke-linejoin="round" stroke-linecap="round"/>
	</g>
	<rect id="social-icon/youtube" width="21.343065" height="20.000000" transform="translate(38.219238 177.000000)" fill="#FFFFFF" fill-opacity="0"/>
	<g clip-path="url(#clip13_304)">
		<path id="Subtract" d="" fill="#FFFFFF" fill-opacity="1.000000" fill-rule="nonzero"/>
	</g>
	<path id="Bespoke software solutions" d="M204.08 76.19L207.57 76.19L207.57 72.05L204.08 72.05L204.08 71.23Q204.08 69.53 204.8 68.89Q205.52 68.24 207.35 68.27L207.35 64.02Q203.14 63.91 201.05 65.65Q200.8 65.85 200.58 66.09Q198.97 67.81 198.97 71.04L198.97 72.05L196.7 72.05L196.7 76.19L198.97 76.19L198.97 92L204.08 92L204.08 76.19ZM114.47 83.5L121.24 92L127.8 92L118.94 82.06L127.72 72.05L121.17 72.05L114.47 80.51L114.47 65.36L109.44 65.36L109.44 92L114.47 92L114.47 83.5ZM18.49 79.74Q17.69 79.29 16.74 79.11Q18.15 78.66 19.15 77.76Q19.53 77.42 19.85 77.02Q20.04 76.78 20.19 76.53Q21.02 75.19 21.02 73.34Q21.02 72.05 20.56 70.95Q20.36 70.45 20.06 70Q19.98 69.88 19.9 69.76Q18.96 68.45 17.26 67.69Q15.4 66.87 12.84 66.87L2.48 66.87L2.48 92L13.32 92Q15.87 92 17.74 91.13Q19.4 90.36 20.37 89.07Q20.49 88.91 20.61 88.73Q20.81 88.42 20.97 88.09Q21.6 86.8 21.6 85.19Q21.6 84.01 21.21 82.96Q20.87 82.04 20.23 81.24Q19.47 80.28 18.49 79.74ZM215.63 85.84L215.63 76.19L220.1 76.19L220.1 72.05L215.63 72.05L215.63 67.12L210.56 67.12L210.56 72.05L208.18 72.05L208.18 76.19L210.56 76.19L210.56 85.8Q210.56 88.81 212.07 90.36Q213.66 92 216.93 92L220.1 92L220.1 87.75L217.76 87.75Q216.61 87.75 216.12 87.3Q215.63 86.84 215.63 85.84ZM12.12 77.24L7.52 77.24L7.52 70.94L12.12 70.94Q13.93 70.94 14.89 71.76Q15.16 71.99 15.35 72.26Q15.87 73 15.87 74.1Q15.87 75.21 15.35 75.94Q15.15 76.21 14.89 76.43Q13.93 77.24 12.12 77.24ZM42.95 83.53Q43.09 82.67 43.09 81.59Q43.09 78.75 41.91 76.54Q41.87 76.48 41.84 76.42Q41.21 75.27 40.31 74.39Q39.45 73.55 38.35 72.95Q38.14 72.84 37.93 72.74Q35.84 71.73 33.26 71.73Q30.37 71.73 28.14 72.94Q28.09 72.96 28.04 72.99Q27.09 73.52 26.31 74.24Q25.24 75.23 24.51 76.59Q23.25 78.93 23.25 82.02Q23.25 85.09 24.52 87.42Q25.24 88.73 26.27 89.7Q27.08 90.48 28.09 91.05Q28.39 91.21 28.7 91.36Q30.75 92.32 33.26 92.32Q36.28 92.32 38.5 90.99Q38.89 90.75 39.26 90.47Q40.62 89.44 41.49 88.1Q42.2 87.01 42.59 85.73L37.15 85.73Q36.59 86.85 35.7 87.45Q34.66 88.15 33.15 88.15Q31.9 88.15 30.9 87.64Q30.35 87.36 29.87 86.92Q29.64 86.71 29.44 86.47Q28.51 85.32 28.36 83.53L42.95 83.53ZM48.92 91.44Q50.86 92.32 53.31 92.32Q55.68 92.32 57.47 91.55Q59.21 90.79 60.15 89.47Q60.18 89.44 60.2 89.4Q60.6 88.83 60.84 88.19Q61.16 87.31 61.16 86.31Q61.13 84.44 60.21 83.27Q60.15 83.2 60.1 83.13Q59.37 82.27 58.46 81.74Q58.08 81.51 57.66 81.34Q56.26 80.76 54.1 80.23Q51.98 79.68 50.96 79.16Q50.35 78.84 50.11 78.34Q49.96 78.02 49.96 77.63Q49.96 77.17 50.16 76.81Q50.34 76.47 50.7 76.23Q51.44 75.73 52.81 75.73Q54.29 75.73 55.17 76.43Q55.51 76.7 55.73 77.04Q56.09 77.59 56.16 78.32L60.98 78.32Q60.84 76.35 59.89 74.91Q59.38 74.14 58.64 73.51Q58.59 73.47 58.55 73.44Q56.44 71.73 52.95 71.73Q50.54 71.73 48.76 72.52Q46.98 73.31 46.02 74.67Q46.02 74.68 46.02 74.68Q45.54 75.36 45.31 76.11Q45.07 76.87 45.07 77.7Q45.07 79.64 46.01 80.82Q46.05 80.87 46.09 80.91Q46.7 81.62 47.45 82.11Q47.96 82.44 48.54 82.68Q49.96 83.25 52.2 83.79Q54.36 84.37 55.34 84.85Q55.95 85.14 56.18 85.62Q56.33 85.93 56.33 86.31Q56.33 86.65 56.22 86.94Q56.03 87.42 55.53 87.79Q54.72 88.36 53.28 88.36Q51.97 88.36 51.04 87.76Q50.92 87.69 50.81 87.6Q50.2 87.14 49.91 86.53Q49.73 86.14 49.67 85.69L44.6 85.69Q44.65 86.47 44.87 87.18Q45.18 88.17 45.84 89.04Q45.87 89.08 45.9 89.12Q47.02 90.58 48.92 91.44ZM71.94 72.65Q70.23 73.56 69.26 74.93L69.26 72.05L64.22 72.05L64.22 101.5L69.26 101.5L69.26 89.15Q70.3 90.52 71.97 91.42Q73.65 92.32 75.85 92.32Q77.5 92.32 78.95 91.78Q79.74 91.48 80.46 91.03Q80.94 90.73 81.38 90.37Q82.82 89.18 83.74 87.37Q84.96 85.01 84.96 81.95Q84.96 78.89 83.74 76.57Q82.84 74.83 81.44 73.68Q80.98 73.3 80.46 72.99Q79.79 72.58 79.05 72.3Q77.56 71.73 75.85 71.73Q73.7 71.73 72.01 72.61Q71.98 72.63 71.94 72.65ZM92 91.44Q94.01 92.32 96.4 92.32Q98.87 92.32 100.94 91.41Q101.31 91.24 101.67 91.05Q102.78 90.45 103.67 89.61Q104.68 88.67 105.42 87.42Q105.54 87.21 105.66 87Q106.81 84.81 106.81 82.02Q106.81 79.15 105.62 76.92Q105.54 76.77 105.45 76.62Q104.74 75.38 103.73 74.43Q102.86 73.61 101.76 73.01Q101.29 72.75 100.79 72.54Q98.84 71.73 96.55 71.73Q94.25 71.73 92.29 72.55Q91.79 72.75 91.32 73.01Q90.27 73.58 89.41 74.37Q88.37 75.34 87.63 76.62Q87.56 76.75 87.49 76.87Q86.28 79.12 86.28 82.02Q86.28 85.07 87.58 87.4Q87.59 87.41 87.59 87.42Q88.33 88.74 89.38 89.72Q90.2 90.48 91.22 91.05Q91.6 91.26 92 91.44ZM147.78 83.53Q147.92 82.67 147.92 81.59Q147.92 78.75 146.74 76.54Q146.7 76.48 146.67 76.42Q146.04 75.27 145.14 74.39Q144.28 73.55 143.18 72.95Q142.98 72.84 142.77 72.74Q140.67 71.73 138.09 71.73Q135.21 71.73 132.98 72.94Q132.92 72.96 132.87 72.99Q131.92 73.52 131.14 74.24Q130.07 75.23 129.34 76.59Q128.08 78.93 128.08 82.02Q128.08 85.09 129.36 87.42Q130.07 88.73 131.1 89.7Q131.91 90.48 132.92 91.05Q133.22 91.21 133.53 91.36Q135.59 92.32 138.09 92.32Q141.11 92.32 143.33 90.99Q143.72 90.75 144.1 90.47Q145.45 89.44 146.33 88.1Q147.03 87.01 147.42 85.73L141.98 85.73Q141.43 86.85 140.53 87.45Q139.49 88.15 137.99 88.15Q136.74 88.15 135.74 87.64Q135.18 87.36 134.7 86.92Q134.47 86.71 134.27 86.47Q133.34 85.32 133.2 83.53L147.78 83.53ZM161.24 91.44Q163.18 92.32 165.63 92.32Q168 92.32 169.79 91.55Q171.53 90.79 172.47 89.47Q172.5 89.44 172.52 89.4Q172.92 88.83 173.16 88.19Q173.48 87.31 173.48 86.31Q173.45 84.44 172.53 83.27Q172.48 83.2 172.42 83.13Q171.69 82.27 170.79 81.74Q170.4 81.51 169.98 81.34Q168.58 80.76 166.42 80.23Q164.3 79.68 163.28 79.16Q162.67 78.84 162.43 78.34Q162.28 78.02 162.28 77.63Q162.28 77.17 162.48 76.81Q162.66 76.47 163.02 76.23Q163.76 75.73 165.13 75.73Q166.61 75.73 167.49 76.43Q167.83 76.7 168.05 77.04Q168.41 77.59 168.48 78.32L173.3 78.32Q173.16 76.35 172.22 74.91Q171.7 74.14 170.96 73.51Q170.91 73.47 170.87 73.44Q168.76 71.73 165.27 71.73Q162.86 71.73 161.08 72.52Q159.3 73.31 158.34 74.67L158.34 74.68Q157.86 75.36 157.63 76.11Q157.39 76.87 157.39 77.7Q157.39 79.64 158.33 80.82Q158.37 80.87 158.41 80.91Q159.02 81.62 159.78 82.11Q160.28 82.44 160.86 82.68Q162.28 83.25 164.52 83.79Q166.68 84.37 167.66 84.85Q168.27 85.14 168.5 85.62Q168.66 85.93 168.66 86.31Q168.66 86.65 168.54 86.94Q168.35 87.42 167.85 87.79Q167.04 88.36 165.6 88.36Q164.29 88.36 163.36 87.76Q163.24 87.69 163.13 87.6Q162.52 87.14 162.23 86.53Q162.05 86.14 161.99 85.69L156.92 85.69Q156.97 86.47 157.19 87.18Q157.5 88.17 158.16 89.04Q158.19 89.08 158.22 89.12Q159.34 90.58 161.24 91.44ZM181 91.44Q183 92.32 185.39 92.32Q187.86 92.32 189.93 91.41Q190.3 91.24 190.67 91.05Q191.77 90.45 192.66 89.61Q193.68 88.67 194.41 87.42Q194.54 87.21 194.65 87Q195.8 84.81 195.8 82.02Q195.8 79.15 194.61 76.92Q194.53 76.77 194.45 76.62Q193.73 75.38 192.73 74.43Q191.85 73.61 190.75 73.01Q190.28 72.75 189.78 72.54Q187.83 71.73 185.54 71.73Q183.24 71.73 181.28 72.55Q180.78 72.75 180.31 73.01Q179.26 73.58 178.41 74.37Q177.37 75.34 176.62 76.62Q176.55 76.75 176.48 76.87Q175.28 79.12 175.28 82.02Q175.28 85.07 176.58 87.4L176.59 87.42Q177.33 88.74 178.38 89.72Q179.2 90.48 180.21 91.05Q180.59 91.26 181 91.44ZM251.87 76.59Q250.66 78.93 250.66 81.95Q250.66 85.01 251.87 87.37Q252.82 89.23 254.31 90.43Q254.71 90.75 255.14 91.03Q255.99 91.55 256.91 91.87Q258.24 92.32 259.73 92.32Q261.96 92.32 263.67 91.41Q265.38 90.48 266.36 89.08L266.36 92L271.44 92L271.44 72.05L266.36 72.05L266.36 74.89Q265.35 73.53 263.67 72.63Q262 71.73 259.77 71.73Q258.08 71.73 256.6 72.28Q255.85 72.57 255.14 72.99Q254.71 73.26 254.31 73.58Q252.82 74.75 251.87 76.59ZM307.15 83.53Q307.29 82.67 307.29 81.59Q307.29 78.75 306.11 76.54Q306.08 76.48 306.04 76.42Q305.41 75.27 304.51 74.39Q303.66 73.55 302.55 72.95Q302.35 72.84 302.14 72.74Q300.04 71.73 297.46 71.73Q294.58 71.73 292.35 72.94Q292.29 72.96 292.24 72.99Q291.29 73.52 290.51 74.24Q289.44 75.23 288.71 76.59Q287.45 78.93 287.45 82.02Q287.45 85.09 288.73 87.42Q289.44 88.73 290.47 89.7Q291.29 90.48 292.3 91.05Q292.59 91.21 292.9 91.36Q294.96 92.32 297.46 92.32Q300.48 92.32 302.7 90.99Q303.1 90.75 303.47 90.47Q304.83 89.44 305.7 88.1Q306.4 87.01 306.79 85.73L301.35 85.73Q300.8 86.85 299.9 87.45Q298.86 88.15 297.36 88.15Q296.11 88.15 295.11 87.64Q294.55 87.36 294.07 86.92Q293.84 86.71 293.65 86.47Q292.71 85.32 292.57 83.53L307.15 83.53ZM281.78 73.44Q280.94 74.16 280.33 75.15L280.33 72.05L275.29 72.05L275.29 92L280.33 92L280.33 82.06Q280.33 79.29 281.53 78.17Q282.74 77.05 285.12 77.05L286.44 77.05L286.44 71.76Q284.66 71.76 283.24 72.47Q283.05 72.56 282.87 72.67Q282.28 73 281.78 73.44ZM244.47 92L250.3 72.05L245.48 72.05L241.95 87.21L238.21 72.05L232.88 72.05L229.07 87.24L225.53 72.05L220.43 72.05L226.29 92L231.76 92L235.4 78.06L239.03 92L244.47 92ZM37.32 78.06Q37.84 78.96 37.87 80.15L28.4 80.15Q28.65 78.43 29.61 77.36Q29.78 77.17 29.96 77Q30.37 76.64 30.84 76.39Q31.84 75.87 33.11 75.87Q34.51 75.87 35.6 76.45Q36.06 76.69 36.46 77.04Q36.99 77.49 37.32 78.06ZM142.16 78.06Q142.68 78.96 142.7 80.15L133.23 80.15Q133.48 78.43 134.44 77.36Q134.61 77.17 134.8 77Q135.2 76.64 135.67 76.39Q136.67 75.87 137.94 75.87Q139.35 75.87 140.44 76.45Q140.89 76.69 141.29 77.04Q141.83 77.49 142.16 78.06ZM301.53 78.06Q302.05 78.96 302.07 80.15L292.6 80.15Q292.85 78.43 293.81 77.36Q293.98 77.17 294.17 77Q294.57 76.64 295.04 76.39Q296.04 75.87 297.32 75.87Q298.72 75.87 299.81 76.45Q300.26 76.69 300.66 77.04Q301.2 77.49 301.53 78.06ZM97.72 87.76Q97.08 87.93 96.4 87.93Q95.2 87.93 94.23 87.46Q93.45 87.08 92.81 86.4Q91.4 84.87 91.4 82.02Q91.4 79.27 92.76 77.75Q92.81 77.7 92.86 77.65Q93.54 76.93 94.38 76.55Q95.33 76.12 96.47 76.12Q97.59 76.12 98.53 76.53Q99.41 76.92 100.13 77.65Q100.21 77.74 100.3 77.83Q101.62 79.35 101.62 82.02Q101.62 83.93 100.9 85.26Q100.32 86.33 99.44 86.97Q99.22 87.13 98.98 87.27Q98.37 87.6 97.72 87.76ZM186.71 87.76Q186.07 87.93 185.39 87.93Q184.2 87.93 183.23 87.46Q182.44 87.08 181.81 86.4Q180.39 84.87 180.39 82.02Q180.39 79.27 181.76 77.75Q181.8 77.7 181.85 77.65Q182.54 76.93 183.38 76.55Q184.32 76.12 185.46 76.12Q186.58 76.12 187.53 76.53Q188.4 76.92 189.12 77.65Q189.21 77.74 189.29 77.83Q190.61 79.35 190.61 82.02Q190.61 83.93 189.89 85.26Q189.32 86.33 188.43 86.97Q188.21 87.13 187.97 87.27Q187.36 87.6 186.71 87.76ZM79.07 78.84Q79.81 80.15 79.81 81.95Q79.81 83.79 79.07 85.12Q78.49 86.17 77.61 86.84Q77.38 87.02 77.12 87.17Q76.53 87.52 75.89 87.71Q75.23 87.89 74.51 87.89Q73.91 87.89 73.34 87.76Q72.62 87.58 71.94 87.19Q71.7 87.05 71.47 86.88Q70.59 86.22 70 85.16Q69.26 83.82 69.26 82.02Q69.26 80.23 70 78.9Q70.6 77.81 71.5 77.15Q71.71 76.99 71.94 76.86Q72.62 76.47 73.34 76.29Q73.91 76.16 74.51 76.16Q75.3 76.16 76.02 76.37Q76.59 76.54 77.12 76.84Q77.37 76.98 77.59 77.14Q78.48 77.79 79.07 78.84ZM265.64 78.88Q266.36 80.19 266.36 82.02Q266.36 83.86 265.64 85.17Q265.13 86.09 264.38 86.71Q264.06 86.98 263.7 87.19Q263.07 87.55 262.41 87.72Q261.76 87.89 261.07 87.89Q260.49 87.89 259.95 87.76Q259.19 87.59 258.49 87.17Q258.27 87.04 258.07 86.88Q257.15 86.2 256.55 85.1Q255.81 83.75 255.81 81.95Q255.81 80.15 256.55 78.84Q257.17 77.73 258.11 77.07Q258.29 76.95 258.48 76.84Q258.95 76.57 259.47 76.4Q260.23 76.16 261.07 76.16Q261.76 76.16 262.41 76.33Q263.07 76.5 263.7 76.86Q264.04 77.06 264.35 77.31Q265.12 77.94 265.64 78.88ZM15.46 87.03Q14.43 87.89 12.6 87.89L7.52 87.89L7.52 81.12L12.48 81.12Q14.28 81.12 15.35 82Q15.38 82.02 15.4 82.05Q15.74 82.33 15.98 82.69Q16.48 83.47 16.48 84.58Q16.48 85.72 15.95 86.49Q15.74 86.79 15.46 87.03ZM88.46 113.32Q89.14 113.67 89.99 113.67Q90.88 113.67 91.56 113.3Q91.91 113.11 92.21 112.83Q92.61 112.44 92.83 111.97Q93.09 111.41 93.09 110.73Q93.09 110.03 92.82 109.46Q92.6 108.99 92.21 108.62Q91.91 108.33 91.56 108.14Q90.88 107.77 89.99 107.77Q89.14 107.77 88.46 108.12Q88.09 108.32 87.78 108.62Q87.39 108.99 87.17 109.44Q86.9 110.02 86.9 110.73Q86.9 111.42 87.16 111.99Q87.38 112.45 87.78 112.83Q88.09 113.13 88.46 113.32ZM47.95 136L47.95 109.36L42.91 109.36L42.91 136L47.95 136ZM80.42 129.84L80.42 120.19L84.88 120.19L84.88 116.05L80.42 116.05L80.42 111.12L75.35 111.12L75.35 116.05L72.96 116.05L72.96 120.19L75.35 120.19L75.35 129.8Q75.35 132.81 76.85 134.36Q78.44 136 81.72 136L84.88 136L84.88 131.75L82.54 131.75Q81.39 131.75 80.9 131.3Q80.42 130.85 80.42 129.84ZM5.72 135.44Q7.66 136.32 10.11 136.32Q12.48 136.32 14.27 135.55Q16.01 134.79 16.95 133.47Q16.98 133.44 17 133.4Q17.4 132.83 17.64 132.19Q17.96 131.31 17.96 130.31Q17.93 128.44 17.01 127.27Q16.95 127.2 16.9 127.13Q16.17 126.28 15.26 125.74Q14.88 125.51 14.46 125.34Q13.06 124.76 10.9 124.23Q8.78 123.68 7.76 123.16Q7.15 122.84 6.91 122.34Q6.76 122.02 6.76 121.63Q6.76 121.17 6.96 120.81Q7.14 120.47 7.5 120.23Q8.24 119.73 9.61 119.73Q11.09 119.73 11.97 120.43Q12.31 120.7 12.53 121.04Q12.89 121.59 12.96 122.32L17.78 122.32Q17.64 120.35 16.69 118.91Q16.18 118.14 15.44 117.51Q15.39 117.47 15.35 117.44Q13.24 115.73 9.75 115.73Q7.34 115.73 5.56 116.52Q3.78 117.31 2.82 118.67L2.82 118.68Q2.34 119.36 2.11 120.11Q1.87 120.87 1.87 121.7Q1.87 123.64 2.81 124.82Q2.85 124.87 2.89 124.91Q3.5 125.62 4.25 126.11Q4.76 126.45 5.34 126.68Q6.76 127.25 9 127.79Q11.16 128.37 12.14 128.85Q12.75 129.14 12.98 129.62Q13.13 129.93 13.13 130.31Q13.13 130.65 13.02 130.94Q12.83 131.42 12.33 131.78Q11.52 132.36 10.08 132.36Q8.77 132.36 7.84 131.76Q7.72 131.69 7.61 131.6Q7 131.14 6.71 130.53Q6.53 130.14 6.47 129.69L1.4 129.69Q1.45 130.47 1.67 131.18Q1.98 132.17 2.64 133.04Q2.67 133.08 2.7 133.12Q3.82 134.58 5.72 135.44ZM25.47 135.44Q27.48 136.32 29.87 136.32Q32.34 136.32 34.41 135.41Q34.78 135.24 35.15 135.05Q36.25 134.45 37.14 133.61Q38.16 132.67 38.89 131.42Q39.02 131.21 39.13 131Q40.28 128.81 40.28 126.02Q40.28 123.15 39.09 120.92Q39.01 120.77 38.93 120.62Q38.21 119.38 37.21 118.43Q36.33 117.61 35.23 117.01Q34.76 116.75 34.26 116.54Q32.31 115.73 30.02 115.73Q27.72 115.73 25.76 116.55Q25.26 116.75 24.79 117.01Q23.74 117.59 22.89 118.38Q21.85 119.34 21.1 120.62Q21.03 120.75 20.96 120.87Q19.76 123.12 19.76 126.02Q19.76 129.07 21.06 131.41Q21.06 131.42 21.07 131.42Q21.81 132.74 22.86 133.72Q23.68 134.48 24.69 135.05Q25.07 135.26 25.47 135.44ZM100.82 135.44Q102.83 136.32 105.22 136.32Q107.69 136.32 109.76 135.41Q110.13 135.24 110.49 135.05Q111.6 134.45 112.49 133.61Q113.5 132.67 114.24 131.42Q114.36 131.21 114.48 131Q115.63 128.81 115.63 126.02Q115.63 123.15 114.44 120.92Q114.36 120.77 114.27 120.62Q113.56 119.38 112.55 118.43Q111.68 117.61 110.58 117.01Q110.11 116.75 109.61 116.54Q107.66 115.73 105.37 115.73Q103.07 115.73 101.11 116.55Q100.61 116.75 100.14 117.01Q99.09 117.59 98.23 118.38Q97.19 119.34 96.45 120.62Q96.38 120.75 96.31 120.87Q95.1 123.12 95.1 126.02Q95.1 129.07 96.4 131.41Q96.41 131.42 96.41 131.42Q97.15 132.74 98.2 133.72Q99.02 134.48 100.04 135.05Q100.42 135.26 100.82 135.44ZM144.21 135.44Q146.15 136.32 148.6 136.32Q150.98 136.32 152.76 135.55Q154.5 134.79 155.45 133.47Q155.47 133.44 155.49 133.4Q155.89 132.83 156.13 132.19Q156.45 131.31 156.45 130.31Q156.42 128.44 155.5 127.27Q155.45 127.2 155.39 127.13Q154.67 126.28 153.76 125.74Q153.37 125.51 152.95 125.34Q151.56 124.76 149.39 124.23Q147.27 123.68 146.26 123.16Q145.64 122.84 145.41 122.34Q145.25 122.02 145.25 121.63Q145.25 121.17 145.45 120.81Q145.64 120.47 145.99 120.23Q146.73 119.73 148.1 119.73Q149.58 119.73 150.46 120.43Q150.8 120.7 151.03 121.04Q151.38 121.59 151.45 122.32L156.27 122.32Q156.13 120.35 155.19 118.91Q154.68 118.14 153.93 117.51Q153.89 117.47 153.84 117.44Q151.74 115.73 148.24 115.73Q145.84 115.73 144.05 116.52Q142.27 117.31 141.32 118.67L141.31 118.68Q140.84 119.36 140.6 120.11Q140.36 120.87 140.36 121.7Q140.36 123.64 141.31 124.82Q141.34 124.87 141.38 124.91Q141.99 125.62 142.75 126.11Q143.26 126.45 143.83 126.68Q145.25 127.25 147.49 127.79Q149.65 128.37 150.63 128.85Q151.24 129.14 151.48 129.62Q151.63 129.93 151.63 130.31Q151.63 130.65 151.51 130.94Q151.32 131.42 150.82 131.78Q150.01 132.36 148.57 132.36Q147.26 132.36 146.33 131.76Q146.21 131.69 146.1 131.6Q145.5 131.14 145.21 130.53Q145.02 130.14 144.97 129.69L139.89 129.69Q139.94 130.47 140.16 131.18Q140.48 132.17 141.13 133.04Q141.16 133.08 141.19 133.12Q142.32 134.58 144.21 135.44ZM133.66 116.89Q131.83 115.76 129.31 115.76Q127.62 115.76 126.19 116.36Q126.03 116.43 125.87 116.5Q124.7 117.05 123.84 117.91Q123.55 118.2 123.29 118.53L123.29 116.05L118.26 116.05L118.26 136L123.29 136L123.29 124.98Q123.29 122.64 124.46 121.36Q124.48 121.34 124.5 121.33Q124.78 121.02 125.12 120.79Q126.2 120.04 127.79 120.04Q129.33 120.04 130.37 120.75Q130.73 121 131.04 121.33Q132.22 122.6 132.22 124.98L132.22 136L137.26 136L137.26 124.3Q137.26 120.67 135.49 118.49Q135.29 118.24 135.06 118.01Q134.42 117.35 133.66 116.89ZM70.66 136L70.66 116.05L65.58 116.05L65.58 127.03Q65.58 129.39 64.41 130.68L64.4 130.69Q64.13 130.97 63.82 131.2Q62.74 131.96 61.12 131.96Q59.59 131.96 58.54 131.25Q58.19 131.01 57.89 130.69L57.88 130.68Q56.7 129.39 56.7 127.03L56.7 116.05L51.65 116.05L51.65 127.75Q51.65 130.41 52.68 132.34Q53.39 133.67 54.48 134.56Q54.95 134.95 55.5 135.26Q55.53 135.27 55.56 135.29Q57.34 136.25 59.64 136.25Q61.13 136.25 62.43 135.77Q62.74 135.65 63.04 135.51Q64.28 134.93 65.15 134Q65.38 133.75 65.58 133.47L65.58 136L70.66 136ZM92.48 136L92.48 116.05L87.44 116.05L87.44 136L92.48 136ZM31.19 131.76Q30.55 131.93 29.87 131.93Q28.68 131.93 27.71 131.46Q26.92 131.08 26.29 130.4Q24.87 128.87 24.87 126.02Q24.87 123.27 26.24 121.75Q26.28 121.7 26.33 121.65Q27.02 120.93 27.86 120.55Q28.8 120.12 29.94 120.12Q31.06 120.12 32.01 120.53Q32.88 120.92 33.6 121.65Q33.69 121.74 33.77 121.83Q35.09 123.35 35.09 126.02Q35.09 127.93 34.37 129.26Q33.8 130.33 32.91 130.97Q32.69 131.13 32.45 131.27Q31.84 131.6 31.19 131.76ZM106.54 131.76Q105.9 131.93 105.22 131.93Q104.02 131.93 103.05 131.46Q102.27 131.08 101.64 130.4Q100.22 128.87 100.22 126.02Q100.22 123.27 101.59 121.75Q101.63 121.7 101.68 121.65Q102.37 120.93 103.2 120.55Q104.15 120.12 105.29 120.12Q106.41 120.12 107.35 120.53Q108.23 120.92 108.95 121.65Q109.03 121.74 109.12 121.83Q110.44 123.35 110.44 126.02Q110.44 127.93 109.72 129.26Q109.14 130.33 108.26 130.97Q108.04 131.13 107.8 131.27Q107.19 131.6 106.54 131.76Z" fill="#FFFFFF" fill-opacity="1.000000" fill-rule="evenodd"/>
	<rect id="Logo" width="120.000000" height="24.303797" fill="#FFFFFF" fill-opacity="0"/>
	<g clip-path="url(#clip13_316)">
		<path id="t" d="M119.78 18.56L119.78 21.53L117.29 21.53C114.63 21.44 113.21 20.01 113.21 17.31L113.21 10.53L111.47 10.53L111.47 7.92L113.21 7.92L113.21 5.01L116.89 5.01L116.89 7.89L119.7 7.89L119.7 10.49L116.89 10.49L116.89 16.95C116.89 17.82 117.06 18.52 118.41 18.52L119.78 18.56Z" fill="#FFFFFF" fill-opacity="1.000000" fill-rule="nonzero"/>
		<path id="e" d="M96.82 14.75L96.82 14.55C96.78 13.68 96.92 12.81 97.21 11.99C97.51 11.16 97.97 10.41 98.56 9.76C99.15 9.12 99.86 8.6 100.66 8.23C101.45 7.86 102.31 7.65 103.18 7.61C103.35 7.61 103.54 7.61 103.71 7.61C107.18 7.61 110.23 9.63 110.23 14.45L110.23 15.47L100.58 15.47C100.68 17.69 101.88 18.94 103.9 18.94C105.64 18.94 106.45 18.18 106.69 17.08L110.16 17.08C109.73 19.97 107.43 21.58 103.77 21.58C99.76 21.55 96.82 19.01 96.82 14.75ZM106.61 13.15C106.48 11.13 105.47 10.16 103.7 10.16C101.93 10.16 100.91 11.25 100.66 13.15L106.61 13.15Z" fill="#FFFFFF" fill-opacity="1.000000" fill-rule="nonzero"/>
		<path id="e" d="M81.82 14.75L81.82 14.55C81.78 13.68 81.91 12.81 82.21 11.99C82.5 11.17 82.96 10.41 83.55 9.77C84.14 9.12 84.85 8.6 85.64 8.23C86.43 7.86 87.29 7.65 88.16 7.61C88.33 7.61 88.51 7.61 88.69 7.61C92.16 7.61 95.21 9.63 95.21 14.45L95.21 15.47L85.58 15.47C85.67 17.69 86.87 18.94 88.89 18.94C90.63 18.94 91.45 18.18 91.68 17.08L95.15 17.08C94.72 19.97 92.41 21.58 88.76 21.58C84.75 21.55 81.82 19.01 81.82 14.75ZM91.61 13.15C91.48 11.13 90.46 10.16 88.69 10.16C86.92 10.16 85.93 11.28 85.65 13.14L91.61 13.15Z" fill="#FFFFFF" fill-opacity="1.000000" fill-rule="nonzero"/>
		<path id="w" d="M60.75 7.89L64.64 7.89L67.02 16.9L69.63 7.89L72.66 7.89L75.02 16.9L77.52 7.89L81.09 7.89L76.86 21.28L73.22 21.28L70.94 12.88L68.5 21.28L64.81 21.28L60.75 7.89Z" fill="#FFFFFF" fill-opacity="1.000000" fill-rule="nonzero"/>
		<path id="s" d="M48.4 17.07L51.87 17.07C52.03 18.28 52.63 18.97 54.22 18.97C55.65 18.97 56.31 18.43 56.31 17.51C56.31 16.59 55.55 16.2 53.61 15.93C50.05 15.39 48.67 14.36 48.67 11.75C48.67 8.96 51.22 7.58 53.99 7.58C56.96 7.58 59.2 8.66 59.52 11.74L56.09 11.74C56.07 11.5 56 11.27 55.89 11.06C55.78 10.85 55.62 10.66 55.44 10.51C55.26 10.36 55.04 10.24 54.81 10.17C54.59 10.1 54.35 10.08 54.11 10.1L54 10.1C52.79 10.1 52.1 10.67 52.1 11.49C52.1 12.31 52.74 12.66 54.7 12.94C58.03 13.45 59.89 14.29 59.89 17.15C59.89 20.02 57.78 21.55 54.26 21.55C50.74 21.55 48.5 19.96 48.4 17.07Z" fill="#FFFFFF" fill-opacity="1.000000" fill-rule="nonzero"/>
		<path id="n" d="M33.65 7.89L37.32 7.89L37.32 10.01C37.74 9.23 38.37 8.59 39.14 8.16C39.91 7.73 40.78 7.53 41.66 7.58C44.27 7.58 46.16 9.17 46.16 12.79L46.16 21.31L42.53 21.31L42.53 13.32C42.53 11.51 41.82 10.64 40.18 10.64C39.83 10.61 39.48 10.65 39.15 10.76C38.82 10.86 38.51 11.03 38.25 11.26C37.98 11.48 37.76 11.76 37.6 12.06C37.44 12.37 37.35 12.71 37.32 13.06C37.3 13.22 37.3 13.38 37.32 13.54L37.32 21.28L33.65 21.28L33.65 7.89Z" fill="#FFFFFF" fill-opacity="1.000000" fill-rule="nonzero"/>
		<path id="i" d="M26.55 4.53C26.54 4.16 26.64 3.8 26.83 3.49C27.02 3.18 27.3 2.93 27.64 2.78C27.97 2.62 28.34 2.57 28.7 2.63C29.07 2.69 29.4 2.86 29.67 3.11C29.94 3.36 30.13 3.68 30.21 4.04C30.29 4.39 30.27 4.77 30.14 5.11C30.01 5.46 29.79 5.75 29.49 5.97C29.19 6.18 28.83 6.3 28.47 6.31L28.4 6.31C28.17 6.33 27.94 6.3 27.73 6.22C27.51 6.15 27.31 6.03 27.14 5.88C26.97 5.73 26.83 5.55 26.73 5.34C26.63 5.14 26.58 4.92 26.56 4.69C26.56 4.64 26.55 4.58 26.55 4.53ZM26.55 7.89L30.27 7.89L30.27 21.28L26.57 21.28L26.55 7.89Z" fill="#FFFFFF" fill-opacity="1.000000" fill-rule="nonzero"/>
		<path id="F" d="M12.56 2.99L24.3 2.99L24.3 6.23L16.7 6.23L16.7 11.07L22.72 11.07L22.72 14.19L16.7 14.19L16.7 21.28L12.56 21.28L12.56 2.99Z" fill="#FFFFFF" fill-opacity="1.000000" fill-rule="nonzero"/>
		<path id="{" d="M5.47 8.97C5.47 10.12 5.47 11.52 3.89 12.09C5.51 12.64 5.47 13.82 5.47 15.05L5.47 19.61C5.47 20.47 5.82 21 6.44 21.12C6.58 21.17 6.72 21.19 6.87 21.18L8.39 21.18L8.39 24.22L5.88 24.22C3.21 24.22 1.73 22.7 1.73 19.89L1.73 14.49C1.72 14.22 1.59 13.96 1.39 13.77C1.19 13.57 0.93 13.47 0.65 13.46L0 13.46L0 10.8L0.65 10.8C0.93 10.79 1.2 10.68 1.4 10.48C1.61 10.28 1.72 10.01 1.73 9.73L1.73 4.26C1.73 1.49 3.18 0 5.88 0L8.41 0L8.41 2.99L6.89 2.99C6.75 2.99 6.6 3.01 6.47 3.06C5.84 3.22 5.49 3.73 5.49 4.57L5.47 8.97Z" fill="#FFFFFF" fill-opacity="1.000000" fill-rule="nonzero"/>
	</g>
</svg>
